<?xml version="1.0" standalone="no"?>
<!DOCTYPE svg PUBLIC "-//W3C//DTD SVG 20010904//EN"
 "http://www.w3.org/TR/2001/REC-SVG-20010904/DTD/svg10.dtd">
<svg version="1.0" xmlns="http://www.w3.org/2000/svg"
 width="512.000000pt" height="512.000000pt" viewBox="0 0 512.000000 512.000000"
 preserveAspectRatio="xMidYMid meet">
<metadata>
Created by potrace 1.14, written by Peter Selinger 2001-2017
</metadata>
<g transform="translate(0.000000,512.000000) scale(0.100000,-0.100000)"
fill="#000000" stroke="none">
<path d="M2315 5109 c-381 -39 -767 -169 -1089 -366 -334 -205 -648 -520 -854
-858 -172 -282 -296 -627 -348 -970 -26 -169 -26 -551 0 -720 41 -273 119
-520 241 -770 202 -415 507 -759 900 -1018 139 -91 372 -208 530 -265 135 -49
364 -106 506 -127 147 -21 581 -21 728 0 550 79 1076 347 1467 747 199 203
346 412 469 663 91 185 142 327 189 515 56 227 66 323 66 615 0 292 -10 388
-66 615 -47 188 -98 330 -189 515 -202 415 -507 759 -900 1018 -139 91 -372
208 -530 265 -132 48 -360 105 -505 127 -126 19 -488 28 -615 14z m217 -1567
l506 -311 144 71 c225 111 561 274 706 344 l132 63 0 -992 0 -992 -490 -239
-489 -239 -213 131 c-117 72 -348 213 -513 314 l-299 184 -444 -253 c-245
-139 -448 -253 -453 -253 -5 0 -9 433 -9 988 l0 988 448 257 c246 141 452 255
457 253 6 -2 239 -144 517 -314z"/>
<path d="M1935 3749 l-80 -47 -5 -222 -5 -221 -32 -20 -33 -21 0 220 0 220
-300 -170 -300 -171 0 -444 0 -444 58 33 c32 18 167 96 300 172 l242 140 0 51
c0 45 3 52 29 68 16 9 32 17 35 17 3 0 6 -62 6 -138 l0 -138 -34 -17 -35 -16
-3 49 -3 50 -297 -171 -298 -172 0 -444 0 -444 23 13 c13 7 148 85 300 173
l277 160 0 220 0 221 35 17 35 17 0 -215 c0 -118 3 -215 6 -215 4 0 38 18 76
40 39 22 73 40 77 40 3 0 99 -56 211 -125 l205 -125 5 380 5 380 300 -185 300
-184 200 97 c110 54 316 154 458 222 l257 125 0 157 0 158 -72 -36 c-39 -20
-118 -58 -175 -84 l-103 -49 0 32 c0 32 3 34 175 120 l175 87 0 345 c0 190 -2
345 -4 345 -2 0 -156 -74 -342 -165 l-339 -165 -5 -385 -5 -384 -106 -52 -105
-51 -397 243 -397 243 -2 385 -3 384 -115 72 -115 71 -80 -47z"/>
<path d="M2312 3259 l3 -352 355 -218 c195 -120 361 -218 368 -218 7 -1 44 15
82 34 l70 35 0 345 c0 190 -2 345 -5 345 -3 0 -33 -14 -67 -31 -33 -17 -69
-29 -78 -26 -10 3 -175 100 -367 217 -191 117 -351 214 -356 217 -4 2 -6 -154
-5 -348z"/>
<path d="M3603 2281 l-343 -165 0 -347 0 -347 338 165 c185 91 340 168 345
172 4 4 6 160 5 348 l-3 340 -342 -166z"/>
<path d="M2492 2000 l3 -352 270 -166 270 -167 78 37 77 37 0 346 c0 190 -2
345 -4 345 -2 0 -33 -13 -69 -30 -37 -16 -71 -30 -77 -30 -6 0 -128 73 -273
162 -144 88 -265 163 -270 165 -4 2 -6 -154 -5 -347z"/>
</g>
</svg>
