<svg fill="none" height="23" viewBox="0 0 23 23" width="23" xmlns="http://www.w3.org/2000/svg" xmlns:xlink="http://www.w3.org/1999/xlink"><clipPath id="a"><path d="m0 0h22.3208v22.3208h-22.3208z" transform="matrix(-1 0 0 -1 22.9677 22.6351)"/></clipPath><g clip-path="url(#a)"><path d="m2.18151 20.1206c-.54846 0-1.00055-.4779-1.06237-1.0936l-.00717-.1443v-8.0463c0-2.31314 1.56613-4.20278 3.53803-4.3262l.20535-.00644h13.99485l-3.521-4.07625c-.3855-.44626-.4152-1.14839-.089-1.634012l.089-.116609c.3856-.446259.9922-.480549 1.4118-.102993l.1008.102993 5.3477 6.189451c.0378.04382.0722.09012.1032.1384l.0767.13765.0571.13964.0379.13035.0265.14545.0076.07266.0042.11116-.003.09309-.0186.15536-.0316.1379-.047.13753-.0559.12069-.0682.11414-.0889.11661-5.3477 6.18943c-.4177.4835-1.0949.4835-1.5126 0-.3855-.4462-.4152-1.1484-.089-1.634l.089-.1166 3.521-4.07625h-13.99485c-.83392 0-1.51917.73642-1.59692 1.67795l-.00738.1789v8.0463c0 .6836-.47884 1.2379-1.06954 1.2379z" fill="#000"/></g></svg>