<svg height="542.33898" viewBox="0 0 643.45103 542.33898" width="643.45103" xmlns="http://www.w3.org/2000/svg"><g fill="#e6e6e6"><ellipse cx="567" cy="537" rx="70" ry="5.33898"/><ellipse cx="226" cy="537" rx="70" ry="5.33898"/><path d="m814.77448 650.83051h-476a7.5082 7.5082 0 0 1 -7.5-7.5v-457a7.5082 7.5082 0 0 1 7.5-7.5h476a7.5082 7.5082 0 0 1 7.5 7.5v457a7.5082 7.5082 0 0 1 -7.5 7.5zm-476-469a4.50492 4.50492 0 0 0 -4.5 4.5v457a4.50493 4.50493 0 0 0 4.5 4.5h476a4.50492 4.50492 0 0 0 4.5-4.5v-457a4.50491 4.50491 0 0 0 -4.5-4.5z" transform="translate(-278.27448 -178.83051)"/><path d="m366.27448 218.83051a3.00328 3.00328 0 0 0 -3 3v124a3.00328 3.00328 0 0 0 3 3h124a3.00328 3.00328 0 0 0 3-3v-124a3.00328 3.00328 0 0 0 -3-3z" transform="translate(-278.27448 -178.83051)"/><path d="m561.31441 308.581a3.625 3.625 0 0 0 0 7.249h170.878a3.625 3.625 0 1 0 .119-7.249q-.05951-.001-.119 0z" transform="translate(-278.27448 -178.83051)"/><path d="m561.31441 275.581a3.625 3.625 0 0 0 0 7.249h48.878a3.625 3.625 0 1 0 .119-7.249q-.05951-.001-.119 0z" transform="translate(-278.27448 -178.83051)"/><path d="m561.31441 342.581a3.625 3.625 0 0 0 0 7.249h170.878a3.625 3.625 0 0 0 .119-7.249q-.05951-.001-.119 0z" transform="translate(-278.27448 -178.83051)"/><path d="m764.58325 473.54293h-234.838c-4.578 0-8.288-2.643-8.293-5.9v-51.042c.005-3.257 3.715-5.9 8.293-5.9h234.838c4.578 0 8.288 2.643 8.293 5.9v51.041c-.00399 3.25707-3.71499 5.897-8.293 5.901z" transform="translate(-278.27448 -178.83051)"/><path d="m605.58325 597.54293h-234.838c-4.578 0-8.288-2.643-8.293-5.9v-51.042c.005-3.257 3.715-5.9 8.293-5.9h234.838c4.578 0 8.288 2.643 8.293 5.9v51.041c-.00399 3.25707-3.71499 5.897-8.293 5.901z" transform="translate(-278.27448 -178.83051)"/></g><path d="m534.74073 625.661h-234.838c-4.578 0-8.288-2.643-8.293-5.9v-51.042c.005-3.257 3.715-5.9 8.293-5.9h234.838c4.578 0 8.288 2.643 8.293 5.9v51.041c-.00399 3.257-3.71499 5.897-8.293 5.901zm-234.838-60.484c-2.747 0-4.973 1.586-4.976 3.54v51.041c0 1.954 2.229 3.538 4.976 3.54h234.838c2.747 0 4.973-1.586 4.976-3.54v-51.039c0-1.954-2.229-3.538-4.976-3.54z" fill="#3f3d56" transform="translate(-278.27448 -178.83051)"/><circle cx="341" cy="288" fill="#6c63ff" r="19"/><circle cx="56" cy="415" fill="#6c63ff" r="19"/><path d="m660.31441 453.206a3.625 3.625 0 0 0 0 7.249h135.878a3.625 3.625 0 0 0 .119-7.249q-.05951-.001-.119 0z" fill="#3f3d56" transform="translate(-278.27448 -178.83051)"/><path d="m660.31441 473.206a3.625 3.625 0 0 0 0 7.249h135.878a3.625 3.625 0 0 0 .119-7.249q-.05951-.001-.119 0z" fill="#3f3d56" transform="translate(-278.27448 -178.83051)"/><path d="m375.31441 580.206a3.625 3.625 0 0 0 0 7.249h135.878a3.625 3.625 0 0 0 .119-7.249q-.05951-.001-.119 0z" fill="#3f3d56" transform="translate(-278.27448 -178.83051)"/><path d="m375.31441 600.206a3.625 3.625 0 0 0 0 7.249h135.878a3.625 3.625 0 0 0 .119-7.249q-.05951-.001-.119 0z" fill="#3f3d56" transform="translate(-278.27448 -178.83051)"/><circle cx="568.97297" cy="475.93056" fill="#2f2e41" r="43.06733"/><path d="m575.51484 509.73025h13.08374v23.44171h-13.08374z" fill="#2f2e41"/><path d="m549.34736 509.73025h13.08374v23.44171h-13.08374z" fill="#2f2e41"/><ellipse cx="577.6955" cy="533.44455" fill="#2f2e41" rx="10.90314" ry="4.08868"/><ellipse cx="551.52796" cy="532.89938" fill="#2f2e41" rx="10.90314" ry="4.08868"/><circle cx="567.88264" cy="465.02746" fill="#fff" r="14.71922"/><circle cx="567.88264" cy="465.02746" fill="#3f3d56" r="4.90642"/><path d="m889.02425 614.70972c3.47747-15.57379-7.63868-31.31043-24.82862-35.14881s-33.94421 5.67511-37.42169 21.24891 7.91492 21.31768 25.10486 25.156 33.66791 4.31775 37.14545-11.2561z" fill="#e6e6e6" transform="translate(-278.27448 -178.83051)"/><path d="m388.58448 368.79047a42.8306 42.8306 0 0 1 -4.43 19.04c-.33.68-.68 1.34-1.05 2h-75.17c-.37-.66-.72-1.32-1.05-2a43.07126 43.07126 0 1 1 81.7-19.04z" fill="#2f2e41" transform="translate(-278.27448 -178.83051)"/><circle cx="68.33625" cy="179.05228" fill="#fff" r="14.71922"/><circle cx="68.33625" cy="179.05228" fill="#3f3d56" r="4.90642"/><path d="m303.74361 328.73454c-3.47748-15.57379 7.63867-31.31043 24.82861-35.14881s33.94422 5.67511 37.42169 21.24891-7.91491 21.31768-25.10485 25.156-33.66791 4.31775-37.14545-11.2561z" fill="#6c63ff" transform="translate(-278.27448 -178.83051)"/><path d="m407.27448 255.83051h-124a5.00181 5.00181 0 0 0 -5 5v124a5.00181 5.00181 0 0 0 5 5h124a5.00181 5.00181 0 0 0 5-5v-124a5.00181 5.00181 0 0 0 -5-5zm3 129a3.00883 3.00883 0 0 1 -3 3h-124a3.00883 3.00883 0 0 1 -3-3v-124a3.00879 3.00879 0 0 1 3-3h124a3.00878 3.00878 0 0 1 3 3z" fill="#3f3d56" transform="translate(-278.27448 -178.83051)"/><ellipse cx="537.06537" cy="622.23907" fill="#2f2e41" rx="21.53369" ry="6.76007" transform="matrix(.3570287 -.93409342 .93409342 .3570287 -514.18629 722.92057)"/><circle cx="497.2582" cy="654.76108" fill="#2f2e41" r="43.06735" transform="matrix(.16018234 -.98708744 .98708744 .16018234 -506.97468 861.88678)"/><path d="m199.35811 509.73025h13.08374v23.44171h-13.08374z" fill="#2f2e41"/><path d="m225.52559 509.73025h13.08374v23.44171h-13.08374z" fill="#2f2e41"/><ellipse cx="210.26125" cy="533.44455" fill="#2f2e41" rx="10.90314" ry="4.08868"/><ellipse cx="236.42873" cy="532.89941" fill="#2f2e41" rx="10.90314" ry="4.08868"/><path d="m455.48148 614.70969c-3.47748-15.57379 7.63867-31.31046 24.82861-35.14884s33.94421 5.67508 37.42169 21.24887-7.91492 21.31766-25.10486 25.156-33.66792 4.31779-37.14544-11.25603z" fill="#6c63ff" transform="translate(-278.27448 -178.83051)"/><ellipse cx="448.75004" cy="634.77768" fill="#2f2e41" rx="6.76007" ry="21.53368" transform="matrix(.42852927 -.9035279 .9035279 .42852927 -595.36631 589.38455)"/><circle cx="581.96808" cy="344.64255" fill="#2f2e41" r="42.01233"/><path d="m866.8304 556.38495h12.76324v22.86749h-12.76324z" fill="#2f2e41" transform="matrix(.9999892 -.00464849 .00464849 .9999892 -280.90454 -174.76527)"/><path d="m841.30427 556.50355h12.76324v22.86749h-12.76324z" fill="#2f2e41" transform="matrix(.9999892 -.00464849 .00464849 .9999892 -280.90537 -174.88393)"/><ellipse cx="845.09117" cy="581.77645" fill="#2f2e41" rx="10.63602" ry="3.98853" transform="matrix(.8636918 -.50402031 .50402031 .8636918 -456.30877 326.41344)"/><ellipse cx="870.08559" cy="581.66024" fill="#2f2e41" rx="10.63605" ry="3.98853" transform="matrix(.8636918 -.50402031 .50402031 .8636918 -452.84325 338.99529)"/><circle cx="580.85505" cy="334.01157" fill="#fff" r="14.35864"/><circle cx="575.93651" cy="327.91867" fill="#3f3d56" r="4.78622"/><path d="m900.81388 484.21377c3.32162-15.20789-7.5934-30.50849-24.37949-34.17481s-33.08659 5.68993-36.40825 20.89782 7.81762 20.75932 24.60367 24.4257 32.86244 4.05919 36.18407-11.14871z" fill="#6c63ff" transform="translate(-278.27448 -178.83051)"/><ellipse cx="816.3671" cy="502.20254" fill="#2f2e41" rx="6.59448" ry="21.00616" transform="matrix(.3892016 -.9211526 .9211526 .3892016 -242.24392 879.91271)"/><ellipse cx="902.20392" cy="537.02192" fill="#2f2e41" rx="6.59448" ry="21.00616" transform="matrix(.3892016 -.9211526 .9211526 .3892016 -221.88888 980.24914)"/><path d="m868.73264 541.781a9.57243 9.57243 0 1 1 -19.14455.10779l-.0001-.01879c-.02458-5.28665 4.256-6.40152 9.54268-6.42606s9.57742 1.05038 9.60197 6.33706z" fill="#fff" transform="translate(-278.27448 -178.83051)"/><path d="m825.67774 498.49559h-234.838c-4.578 0-8.288-2.643-8.293-5.9v-51.042c.005-3.257 3.715-5.9 8.293-5.9h234.838c4.578 0 8.288 2.643 8.293 5.9v51.041c-.004 3.25702-3.71499 5.89701-8.293 5.901zm-234.838-60.484c-2.747 0-4.973 1.586-4.976 3.54v51.041c0 1.954 2.229 3.538 4.976 3.54h234.838c2.747 0 4.973-1.586 4.976-3.54v-51.039c0-1.954-2.229-3.538-4.976-3.54z" fill="#3f3d56" transform="translate(-278.27448 -178.83051)"/></svg>