<svg fill="none" height="316" viewBox="0 0 221 316" width="221" xmlns="http://www.w3.org/2000/svg"><g clip-rule="evenodd" fill-rule="evenodd"><path d="m146.474 47.6722c4.286-5.0303 7.186-11.195 6.701-18.1028-1.396-19.90311-29.102-15.5247-34.491-5.4793-5.39 10.0454-4.749 35.5264 2.216 37.3218 2.778.716 8.695-1.0379 14.718-4.668l-3.781 26.7437h22.321z" fill="#b28b67"/><path d="m162.907 22.9441c.721-.7144 1.114-1.7342 1.454-2.7024.353-1.0059.697-2.0221.931-3.0691.469-2.0918.473-4.4975-1.019-6.1218-1.197-1.30256-2.993-1.88679-4.65-2.01376-1.104-.08468-2.238.06996-3.297.41793-1.05.34518-1.955 1.03313-2.973 1.46013-.039-2.25425-.425-4.613-1.569-6.53781-1.1-1.85198-2.855-2.89124-4.853-3.16619-2.051-.282163-4.076.19777-5.912 1.19067-.46.24866-.915.50917-1.351.80402-.365.2469-.745.54424-1.173.64465-.477.11207-.714-.16361-1.024-.51186-.364-.4083-.773-.76792-1.207-1.08673-1.918-1.409442-4.433-1.988949-6.655-1.14412-1.023.38924-2.019 1.05028-2.713 1.96118-.619.81198-1.061 2.1-1.915 2.66572-.362.24015-.618-.07802-.949-.31317-.495-.35333-.968-.74322-1.47-1.08692-.705-.48289-1.468-.84409-2.285-1.03316-1.197-.2768-2.85-.21192-3.192 1.35502-.128.58858-.03 1.21806.012 1.81108.056.81429.116 1.6283.187 2.44139.053.61736.121 1.21363.238 1.81983.062.3232.256.9257.118 1.2493-.173.4045-.973.1745-1.314.1886-.675.0278-1.352.1461-1.976.4343-.483.2234-.991.5519-1.195 1.1059-.125.3403-.092.6898-.033 1.0399.071.4201-.01.643-.063 1.0669-.906-.446-4.045-1.4371-4.44.1863-.132.5406.168 1.1514.396 1.6072.401.7996.926 1.5304 1.463 2.2274 1.121 1.4539 2.458 2.708 3.897 3.7805-1.686.7495-2.126 2.9602-.666 4.2774.644.5816 1.511.711 2.324.6738.297-.0136.726-.128.96-.0761.126.0278.261.1346.436.1465 1.147.0786 2.442-.1978 3.564-.4524 1.998-.4537 3.89-1.4005 5.435-2.8425.397-.3699.724-.5828 1.258-.5774.467.0048.926.1329 1.393.1448 1.235.0315 2.35-.5726 3.497-.9747.07 1.5502.512 3.2575 1.146 4.6522.517 1.1372 1.597 1.3025 2.658 1.4023 3.393.3193 6.799-.037 10.196-.0323-3.289.7434-6.687 1.0498-9.947 1.9246-1.474.3954-.348 1.3884.282 2.0769 1.037 1.1336 1.808 2.5383 2.343 4.018 1.609-2.0972 4.453-3.479 6.973-2.8348 2.783.7118 4.744 4.4764 2.963 7.1828-1.033 1.5711-2.899 2.1776-4.452 2.8527 1.211 1.2595 1.504 3.1197 2.233 4.6866.36.7728.865 1.6465 1.669 1.9158.298.0996.647.1082.881.3507.291.3003.36.6361.732.8942 1.481 1.0302 3.796.9508 5.109-.3936 1.188-1.2159.879-3.1398-.113-4.3725 1.579-.6582 4.456-1.5047 3.828-3.9647 3.422-.2272 11.729-5.7763 7.137-9.8311 2.52-1.4244 4.836-4.9053 3.217-7.9738-1.247-2.3628-4.146-3.419-6.524-3.5443z" fill="#191847"/><path d="m194.501 199.742h-71.85l-9.414 115.324h106.953z" fill="#c5cfd6"/><path d="m194.501 199.742h-22.098l-13.226 115.324h61.013z" fill="#000" fill-opacity=".1"/><path d="m40.7377 179.984c-7.6605-4.6-20.5129 1.31-20.5041 7.889.0264 19.684 17.9899 112.453 18.9278 118.317.9379 5.865 10.9852 7.414 11.5702.019.931-11.765 2.6606-52.495.9301-71.347-.7144-7.782-1.4837-15.193-2.241-21.805 9.4261 17.023 24.004 41.395 43.7338 73.116l10.7105-4.893c-8.4105-27.712-15.3073-47.275-20.69-58.691-9.2164-19.546-17.8584-36.285-21.4955-42.181-5.7212-9.274-15.6798-6.038-20.9418-.424z" fill="#b28b67"/><path d="m103.1 265.89-36.7623-87.086c-8.8068-14.167-33.4986 2.883-30.4953 11.1 6.8184 18.654 41.4954 79.045 43.5268 84.603z" fill="#1f28cf"/><path d="m105.141 275.788c2.29 1.885 3.78 3.425 4.469 4.619.839 1.452 1.82 3.711 2.945 6.777-1.685.973-16.8272 9.716-45.4275 26.228-3.4337-3.221-3.9687-5.721-1.605-7.501 2.3638-1.78 4.3144-3.281 5.852-4.503l15.6798-21.603c.3017-.416.8833-.508 1.299-.206.0071.005.0141.01.0211.016l3.258 2.508c2.9888-.261 5.2193-.816 6.6913-1.666 1.1961-.69 2.5693-2.127 4.1183-4.31.595-.838 1.756-1.035 2.594-.44.036.026.071.053.105.081z" fill="#e4e4e4"/><path d="m53.0841 301.489c1.0404 2.777 1.5607 4.856 1.5607 6.235 0 1.677-.2794 4.124-.8382 7.342-1.9456 0-19.4307 0-52.45551 0-1.3631368-4.507-.57626-6.94 2.36063-7.299s5.37662-.684 7.31918-.973l24.3808-10.869c.4691-.21 1.019.001 1.2281.47.0036.008.0071.016.0104.025l1.5672 3.801c2.7188 1.269 4.9281 1.903 6.6279 1.903 1.3811 0 3.2883-.558 5.7218-1.673.9338-.428 2.0379-.018 2.466.915.0184.041.0354.081.051.123z" fill="#e4e4e4"/><path d="m17.657 194.564c0 24.708 11.734 82.343 11.7415 87.783l25.2463.02c-3.6953-51.427-5.0056-77.417-3.931-77.971 1.612-.831 66.0792 6.436 85.4142 6.436 27.881 0 39.415-17.582 40.351-50.152h-55.231c-11.246 1.204-69.9038 13.035-91.6882 17.102-9.3262 1.741-11.9028 9.976-11.9028 16.782z" fill="#2b44ff"/><path d="m112.643 102.739-32.2808-17.6798c-5.3682-6.3747-10.6574-11.3256-15.8675-14.8526-1.592-.6646-4.3761-1.0669-1.7724 3.5543 2.6036 4.6212 5.1344 9.5991 3.808 11.0228-1.3265 1.4237-4.6341-.5652-6.2166 1.8003-1.0549 1.577 4.5959 4.0682 16.9525 7.4736l23.4558 21.4764zm-50.558 14.918-14.1798-7.79c-1.9896-7.571-4.3679-11.3796-7.135-11.427-2.1257-.9891 1.5762 8.577-2.4535 7.748-4.0296-.83-13.8648-8.1447-15.5595-6.6596-2.5071 2.1976-.2716 8.9436 2.3624 12.3006 4.9229 6.272 8.9988 8.417 19.0731 11.226 5.2673 1.469 10.9623 4.413 17.0848 8.832z" fill="#997659"/><path d="m128.365 98.801c-11.307-.1195-26.385-2.5076-42.4734-12.7198l-6.3182 14.0898c11.0972 11.013 26.7006 20.062 40.3446 19.679 10.752-.302 16.247-13.308 8.447-21.049z" fill="#2026a2"/><path d="m113.14 121.397c-12.004 2.994-32.1334-.537-60.3887-10.591-7.0085 14.499-10.2484 24.836-9.7196 31.011 24.2389 12.661 45.0137 18.306 62.1293 18.679-.544 10.156.692 19.819 4.845 28.649 8.537 18.153 58.526 1.341 75.334 4.65 10.525-34.183-9.826-48.075-9.843-69.947-.018-23.9526-19.25-60.8211-22.08-60.8211h-25.805c-1.424 18.2928-8.591 38.4531-14.472 58.3701z" fill="#1f28cf"/></g></svg>