<svg fill="none" height="91" viewBox="0 0 91 91" width="91" xmlns="http://www.w3.org/2000/svg"><g fill="#000"><path d="m72.861 17.815c-.809-.834-2.137-.85-2.969-.043l-22.64 22.004c-.83.809-.85 2.139-.041 2.971.412.422.959.635 1.506.635.527 0 1.057-.195 1.463-.594l22.64-22.004c.83-.809.85-2.137.041-2.969z"/><path d="m88.707 34.827-7.762-.004c-.787-2.637-1.879-5.168-3.23-7.568l6.508-6.43c.137-.084.268-.182.387-.303.109-.111.201-.232.281-.357l2.941-2.906c1.592-1.605 2.463-3.738 2.451-6-.01-2.26399-.904-4.38699-2.514-5.97899l-2.588-2.564c-1.598-1.58-3.715-2.449002-5.961-2.449002-2.283 0-4.422.893002-6.004 2.496002l-10.193 10.07099c-2.217-1.193-4.541-2.17-6.957-2.89099l-.002-7.762c-.002-1.158-.941-2.0980022-2.102-2.0980022h-17.066c-1.158 0-2.098.9390022-2.1 2.0980022l-.002 7.764c-2.414.72099-4.744 1.68399-6.959 2.87699l-5.48-5.48399c-.395-.395-.93-.615-1.486-.615s-1.092.221-1.484.615l-12.071 12.06899c-.82.82-.82 2.148-.002 2.969l5.484 5.484c-1.191 2.213-2.154 4.547-2.877 6.963h-7.763c-1.16 0-2.1000002.941-2.1000002 2.1v17.066c0 1.16.9390002 2.1 2.1000002 2.1h7.762c.719 2.412 1.684 4.744 2.879 6.963l-5.486 5.484c-.393.395-.615.93-.615 1.486s.223 1.09.615 1.484l12.068 12.068c.82.82 2.15.82 2.971 0l5.484-5.484c2.223 1.195 4.553 2.156 6.963 2.875v7.766c0 1.16.941 2.1 2.1 2.1h17.07c1.16 0 2.1-.939 2.1-2.1v-7.768c2.42-.719 4.752-1.682 6.961-2.873l5.486 5.484c.82.82 2.15.82 2.971 0l12.066-12.068c.82-.82.82-2.15 0-2.971l-5.482-5.484c1.191-2.213 2.152-4.545 2.873-6.963h7.764c1.16 0 2.102-.939 2.102-2.1v-17.062c-.001-1.158-.941-2.097-2.101-2.099zm-19.287 2.845c.813 2.508 1.227 5.125 1.227 7.785 0 13.902-11.311 25.212-25.215 25.212-13.902 0-25.213-11.311-25.213-25.212 0-13.902 11.311-25.213 25.213-25.213 2.973 0 5.848.502 8.58 1.494l-19.778 19.544c-.004.006-.008.012-.014.016-.023.025-.043.055-.066.08-.088.1-.166.203-.234.314-.027.045-.051.09-.074.137-.057.113-.104.232-.141.354-.008.029-.023.053-.031.082l-3.842 15.335c-.18.715.029 1.471.549 1.992.398.4.938.617 1.488.617.168 0 .336-.02.502-.061l15.488-3.809c.029-.008.051-.023.078-.031.125-.035.246-.084.365-.143.041-.021.082-.041.123-.064.129-.076.254-.168.369-.275.01-.01.021-.016.031-.025.002-.002.006-.004.008-.006l19.979-19.742c.215.535.43 1.072.608 1.619zm-26.203 15.484-8.463 2.08 2.098-8.377 3.1 3.066zm4.142-1.808-3.482-3.445-5.18-5.126 20.361-20.119c.021-.018.039-.041.061-.061l5.775-5.707c.016-.016.033-.029.047-.045l6.488-6.41 8.66 8.57zm34.868-45.64799 2.588 2.564c.813.805 1.264 1.87499 1.27 3.01599.006 1.139-.434 2.213-1.221 3.008l-1.785 1.766-8.662-8.56999 1.771-1.75c1.597-1.624 4.421-1.634 6.039-.034zm4.378 46.18899h-7.265c-.965 0-1.803.654-2.037 1.59-.781 3.123-2.012 6.102-3.652 8.85-.494.826-.363 1.883.316 2.563l5.129 5.131-9.098 9.098-5.133-5.129c-.682-.682-1.736-.811-2.563-.318-2.742 1.641-5.719 2.871-8.846 3.654-.934.232-1.59 1.072-1.59 2.037v7.268h-12.868v-7.268c0-.965-.656-1.805-1.592-2.039-3.109-.773-6.086-2.002-8.852-3.652-.826-.492-1.881-.361-2.561.318l-5.131 5.129-9.098-9.098 5.131-5.131c.682-.68.813-1.736.318-2.563-1.648-2.76-2.879-5.74-3.656-8.848-.234-.936-1.074-1.592-2.037-1.592h-7.262v-12.865h7.264c.961 0 1.801-.656 2.037-1.59.783-3.125 2.014-6.102 3.656-8.85.494-.828.363-1.885-.316-2.563l-5.131-5.131 9.102-9.1 5.127 5.131c.682.682 1.738.811 2.563.318 2.754-1.645 5.73-2.875 8.848-3.658.934-.234 1.588-1.074 1.588-2.035l.004-7.26399h12.867l.002 7.26399c0 .961.656 1.801 1.59 2.035 2.225.557 4.373 1.354 6.426 2.355l-2.619 2.588c-3.727-1.645-7.697-2.48-11.832-2.48-16.219 0-29.412 13.195-29.412 29.412 0 16.216 13.193 29.414 29.412 29.414s29.414-13.197 29.414-29.414c0-3.1-.482-6.156-1.43-9.078-.385-1.191-.855-2.361-1.393-3.498l2.584-2.555c1.168 2.256 2.08 4.635 2.699 7.107.234.934 1.074 1.59 2.037 1.59h7.262v12.867z"/></g></svg>