<svg height="729.98934" viewBox="0 0 831 729.98934" width="831" xmlns="http://www.w3.org/2000/svg"><g transform="translate(-184.5 -85.00533)"><path d="m908.4762 788.57689v-72.34s28.19166 51.28598 0 72.34z" fill="#f1f1f1"/><path d="m910.21766 788.56417-53.28966-48.92125s56.84524 13.91553 53.28966 48.92125z" fill="#f1f1f1"/><path d="m290.95913 788.57689v-72.34s-28.19166 51.28598 0 72.34z" fill="#f1f1f1"/><path d="m289.21766 788.56417 53.28963-48.92125s-56.8452 13.91553-53.28963 48.92125z" fill="#f1f1f1"/><path d="m775.25582 252.05354h-3.86238v-105.80886a61.23928 61.23928 0 0 0 -61.23923-61.23935h-224.17051a61.23927 61.23927 0 0 0 -61.2394 61.23916v580.47583a61.2393 61.2393 0 0 0 61.23922 61.23935h224.17039a61.2393 61.2393 0 0 0 61.23947-61.23911v-399.35046h3.86244z" fill="#3f3d56"/><path d="m712.625 100.93768h-29.26165a21.72758 21.72758 0 0 1 -20.11676 29.93348h-128.42437a21.72754 21.72754 0 0 1 -20.11676-29.93351h-27.33046a45.73283 45.73283 0 0 0 -45.73286 45.73276v579.62409a45.73282 45.73282 0 0 0 45.7328 45.73286h225.25006a45.73283 45.73283 0 0 0 45.73286-45.7328v-579.62411a45.73279 45.73279 0 0 0 -45.73286-45.73277z" fill="#fff"/><path d="m706.98254 762.07515h-213.96508c-24.58521 0-44.58667-17.85253-44.58667-39.79589v-28.81055c0-17.48975 15.92895-31.71875 35.50805-31.71875h232.12232c19.5791 0 35.50805 14.229 35.50805 31.71875v28.81055c0 21.94336-20.00146 39.79589-44.58667 39.79589z" fill="#e5e5e5"/><path d="m515.50942 277.85025h-47.72751a3.22863 3.22863 0 0 1 -3.22483-3.22483v-47.72751a3.22863 3.22863 0 0 1 3.22483-3.22483h47.72751a3.22863 3.22863 0 0 1 3.22483 3.22483v47.72751a3.22863 3.22863 0 0 1 -3.22483 3.22483z" fill="#6c63ff"/><path d="m587.74564 277.85025h-47.7275a3.22863 3.22863 0 0 1 -3.22483-3.22483v-47.72751a3.22862 3.22862 0 0 1 3.22483-3.22483h47.7275a3.22862 3.22862 0 0 1 3.22483 3.22483v47.72751a3.22863 3.22863 0 0 1 -3.22483 3.22483z" fill="#e5e5e5"/><path d="m659.98186 277.85025h-47.7275a3.22863 3.22863 0 0 1 -3.22483-3.22483v-47.72751a3.22862 3.22862 0 0 1 3.22483-3.22483h47.7275a3.22862 3.22862 0 0 1 3.22483 3.22483v47.72751a3.22863 3.22863 0 0 1 -3.22483 3.22483z" fill="#e5e5e5"/><path d="m732.21809 277.85025h-47.72751a3.22863 3.22863 0 0 1 -3.22483-3.22483v-47.72751a3.22863 3.22863 0 0 1 3.22483-3.22483h47.72751a3.22863 3.22863 0 0 1 3.22483 3.22483v47.72751a3.22863 3.22863 0 0 1 -3.22483 3.22483z" fill="#e5e5e5"/><path d="m515.33871 366.21063h-47.7275a3.22863 3.22863 0 0 1 -3.22483-3.22484v-47.7275a3.22862 3.22862 0 0 1 3.22483-3.22483h47.7275a3.22862 3.22862 0 0 1 3.22483 3.22483v47.7275a3.22863 3.22863 0 0 1 -3.22483 3.22484z" fill="#e5e5e5"/><path d="m587.57493 366.21063h-47.7275a3.22863 3.22863 0 0 1 -3.22483-3.22484v-47.7275a3.22862 3.22862 0 0 1 3.22483-3.22483h47.7275a3.22863 3.22863 0 0 1 3.22484 3.22483v47.7275a3.22864 3.22864 0 0 1 -3.22484 3.22484z" fill="#e5e5e5"/><path d="m659.81116 366.21063h-47.72751a3.22864 3.22864 0 0 1 -3.22483-3.22484v-47.7275a3.22863 3.22863 0 0 1 3.22483-3.22483h47.72751a3.22863 3.22863 0 0 1 3.22483 3.22483v47.7275a3.22864 3.22864 0 0 1 -3.22483 3.22484z" fill="#6c63ff"/><path d="m732.04738 366.21063h-47.7275a3.22864 3.22864 0 0 1 -3.22484-3.22484v-47.7275a3.22863 3.22863 0 0 1 3.22484-3.22483h47.7275a3.22862 3.22862 0 0 1 3.22483 3.22483v47.7275a3.22863 3.22863 0 0 1 -3.22483 3.22484z" fill="#6c63ff"/><path d="m515.168 454.571h-47.7275a3.22863 3.22863 0 0 1 -3.22483-3.22484v-47.7275a3.22862 3.22862 0 0 1 3.22483-3.22483h47.7275a3.22863 3.22863 0 0 1 3.22484 3.22483v47.7275a3.22864 3.22864 0 0 1 -3.22484 3.22484z" fill="#e5e5e5"/><path d="m587.40423 454.571h-47.72751a3.22864 3.22864 0 0 1 -3.22483-3.22484v-47.7275a3.22863 3.22863 0 0 1 3.22483-3.22483h47.72751a3.22863 3.22863 0 0 1 3.22483 3.22483v47.7275a3.22864 3.22864 0 0 1 -3.22483 3.22484z" fill="#e5e5e5"/><path d="m659.64045 454.571h-47.72745a3.22864 3.22864 0 0 1 -3.22484-3.22484v-47.7275a3.22863 3.22863 0 0 1 3.22484-3.22483h47.7275a3.22862 3.22862 0 0 1 3.22483 3.22483v47.7275a3.22863 3.22863 0 0 1 -3.22488 3.22484z" fill="#e5e5e5"/><path d="m731.87667 454.571h-47.7275a3.22863 3.22863 0 0 1 -3.22483-3.22484v-47.7275a3.22862 3.22862 0 0 1 3.22483-3.22483h47.7275a3.22862 3.22862 0 0 1 3.22483 3.22483v47.7275a3.22863 3.22863 0 0 1 -3.22483 3.22484z" fill="#e5e5e5"/><path d="m514.9973 542.93139h-47.72751a3.22864 3.22864 0 0 1 -3.22483-3.22484v-47.7275a3.22863 3.22863 0 0 1 3.22483-3.22483h47.72751a3.22863 3.22863 0 0 1 3.22483 3.22483v47.7275a3.22864 3.22864 0 0 1 -3.22483 3.22484z" fill="#e5e5e5"/><path d="m587.23352 542.93139h-47.72752a3.22864 3.22864 0 0 1 -3.22484-3.22484v-47.7275a3.22863 3.22863 0 0 1 3.22484-3.22483h47.7275a3.22862 3.22862 0 0 1 3.22483 3.22483v47.7275a3.22863 3.22863 0 0 1 -3.22481 3.22484z" fill="#e5e5e5"/><path d="m659.46974 542.93139h-47.7275a3.22863 3.22863 0 0 1 -3.22483-3.22484v-47.7275a3.22862 3.22862 0 0 1 3.22483-3.22483h47.7275a3.22862 3.22862 0 0 1 3.22483 3.22483v47.7275a3.22863 3.22863 0 0 1 -3.22483 3.22484z" fill="#e5e5e5"/><path d="m731.706 542.93139h-47.72754a3.22864 3.22864 0 0 1 -3.22483-3.22484v-47.7275a3.22863 3.22863 0 0 1 3.22483-3.22483h47.72754a3.22863 3.22863 0 0 1 3.22483 3.22483v47.7275a3.22864 3.22864 0 0 1 -3.22483 3.22484z" fill="#e5e5e5"/><path d="m515.50942 740.29107h-47.72751a3.22864 3.22864 0 0 1 -3.22483-3.22484v-47.7275a3.22863 3.22863 0 0 1 3.22483-3.22483h47.72751a3.22863 3.22863 0 0 1 3.22483 3.22483v47.7275a3.22864 3.22864 0 0 1 -3.22483 3.22484z" fill="#fff"/><path d="m587.74564 740.29107h-47.7275a3.22863 3.22863 0 0 1 -3.22483-3.22484v-47.7275a3.22862 3.22862 0 0 1 3.22483-3.22483h47.7275a3.22862 3.22862 0 0 1 3.22483 3.22483v47.7275a3.22863 3.22863 0 0 1 -3.22483 3.22484z" fill="#fff"/><path d="m659.98186 740.29107h-47.7275a3.22863 3.22863 0 0 1 -3.22483-3.22484v-47.7275a3.22862 3.22862 0 0 1 3.22483-3.22483h47.7275a3.22862 3.22862 0 0 1 3.22483 3.22483v47.7275a3.22863 3.22863 0 0 1 -3.22483 3.22484z" fill="#fff"/><path d="m732.21809 740.29107h-47.72751a3.22864 3.22864 0 0 1 -3.22483-3.22484v-47.7275a3.22863 3.22863 0 0 1 3.22483-3.22483h47.72751a3.22863 3.22863 0 0 1 3.22483 3.22483v47.7275a3.22864 3.22864 0 0 1 -3.22483 3.22484z" fill="#fff"/></g><circle cx="392.11051" cy="548.22133" fill="#e5e5e5" r="6.44966"/><circle cx="415.32929" cy="548.22133" fill="#e5e5e5" r="6.44966"/><circle cx="438.54808" cy="548.22133" fill="#e5e5e5" r="6.44966"/><path d="m1014.5 789.00533h-829a1 1 0 0 1 0-2h829a1 1 0 0 1 0 2z" fill="#cbcbcb" transform="translate(-184.5 -85.00533)"/><path d="m510.864 592.10718a13.04925 13.04925 0 0 0 -1.75972-19.93187l12.59561-44.62912-22.9642 7.30333-8.44035 41.26089a13.11993 13.11993 0 0 0 20.56866 15.99677z" fill="#ffb7b7" transform="translate(-184.5 -85.00533)"/><path d="m517.39368 564.75191a5.96933 5.96933 0 0 1 -1.24508.10531l-22.02964-.44139a5.83948 5.83948 0 0 1 -5.65948-6.693l22.34763-150.99083a18.51184 18.51184 0 0 1 18.25725-15.71657 18.41265 18.41265 0 0 1 17.83 22.82525l-15.84048 64.15663-8.98322 81.66069a5.80616 5.80616 0 0 1 -4.67698 5.09391z" fill="#3f3d56" transform="translate(-184.5 -85.00533)"/><path d="m342.105 718.105h12.26l5.833-47.288-18.095.001z" fill="#ffb7b7"/><path d="m523.47815 799.108 24.144-.001h.001a15.3873 15.3873 0 0 1 15.38647 15.38623v.5l-39.53076.00147z" fill="#2f2e41" transform="translate(-184.5 -85.00533)"/><path d="m394.382 714.123 12.183 1.366 11.067-46.343-17.982-2.016z" fill="#ffb7b7"/><path d="m576.22006 794.80228 23.99372 2.69008.001.00011a15.38731 15.38731 0 0 1 13.57568 17.00532l-.05573.49688-39.28462-4.40458z" fill="#2f2e41" transform="translate(-184.5 -85.00533)"/><path d="m515.09858 539.9603s-16.808 37.20886-1.96521 61.37694l8.84283 188.16809h20.30315l19.69685-152 35 45-21.32365 105.02761 24.83152 1.394 34.49213-106.42161s-26.49789-117.3487-35.24895-120.17433l-5.75105-26.82565z" fill="#2f2e41" transform="translate(-184.5 -85.00533)"/><path d="m507.61793 572.62738s-15.14173 17.37795 24.85827 23.37795 82-3 83-15-107.85827-8.37795-107.85827-8.37795z" fill="#cbcbcb" transform="translate(-184.5 -85.00533)"/><path d="m708.1348 357.05837a11.61132 11.61132 0 0 1 -14.05875 10.92486l-15.11989 21.80439-15.49148-5.95655 21.78468-30.49213a11.67422 11.67422 0 0 1 22.88544 3.71943z" fill="#ffb7b7" transform="translate(-184.5 -85.00533)"/><path d="m580.2636 385.112-21.37737-9.671-27.38957 1.958s-33.02046 38.6063-20.02046 75.6063l-8 129c51 14 74.1831-12.25781 111-1l-11.37198-143.3693z" fill="#3f3d56" transform="translate(-184.5 -85.00533)"/><path d="m565.9762 394.50533 14.2874-9.39337s19.84646-3 27.77953 4.69668c0 0 26.92659 2.25376 33.42983 8.97523l7.16026 1.6141 23.7869-30.80184 14.55608 7.9092-21 57-62.872 3.13064z" fill="#3f3d56" transform="translate(-184.5 -85.00533)"/><circle cx="554.72002" cy="334.98279" fill="#ffb7b7" r="33.74484" transform="matrix(.87745459 -.47965972 .47965972 .87745459 -277.19936 222.12213)"/><path d="m525.53291 308.60053c6.02337-10.83362 13.55038-17.84837 25.94329-17.5952s23.11287-.23674 28.68877 10.83384a18.20735 18.20735 0 0 0 2.14293-8.97911 10.2833 10.2833 0 0 1 4.53932 10.34472 7.50982 7.50982 0 0 0 3.70778-6.16528c4.136 1.37646 5.2115 7.20519 3.11866 11.02892s-6.19726 6.03481-10.13517 7.904-2.1199 11.75518-4.69141 15.27487c-1.79468 2.45641-2.61549 5.4668-3.82479 8.25829a.54091.54091 0 0 1 -.2448.25565c-2.77277 1.54608-4.5229 4.30857-4.03339 7.44529a1.21274 1.21274 0 0 1 -.03945.70958c-3.51018 6.613-7.29926 13.53194-13.66181 17.478a22.65364 22.65364 0 0 1 -17.01862 2.63072c-6.50353-1.55494-12.1259-5.86678-16.18006-11.18444s-6.662-11.60249-8.62153-17.99576c-1.73827-5.6714-3.00232-11.73529-1.62409-17.50476s6.04709-11.112 11.96211-11.55783" fill="#2f2e41" transform="translate(-184.5 -85.00533)"/></svg>