<svg fill="none" height="236" viewBox="0 0 1340 236" width="1340" xmlns="http://www.w3.org/2000/svg"><path clip-rule="evenodd" d="m0 134.575 44.6415 27.901c44.6416 27.901 133.9245 83.703 223.2075 61.382s178.566-122.764 267.85-139.5049c89.283-16.7406 178.566 50.2219 267.849 50.2219s178.566-66.9625 267.852-61.3823c89.28 5.5802 178.56 83.7033 223.2 122.7643l44.65 39.061v-234.367854h-44.65c-44.64 0-133.92 0-223.2 0-89.286 0-178.569 0-267.852 0s-178.566 0-267.849 0c-89.284 0-178.567 0-267.85 0s-178.5659 0-223.2075 0h-44.6415z" fill="#0a0b10" fill-rule="evenodd"/></svg>