<svg width="91" height="91" viewBox="0 0 91 91" fill="none" xmlns="http://www.w3.org/2000/svg">
<path d="M72.861 17.815C72.052 16.981 70.724 16.965 69.892 17.772L47.252 39.776C46.422 40.585 46.402 41.915 47.211 42.747C47.623 43.169 48.17 43.382 48.717 43.382C49.244 43.382 49.774 43.187 50.18 42.788L72.82 20.784C73.65 19.975 73.67 18.647 72.861 17.815Z" fill="black"/>
<path d="M88.707 34.827L80.945 34.823C80.158 32.186 79.066 29.655 77.715 27.255L84.223 20.825C84.36 20.741 84.491 20.643 84.61 20.522C84.719 20.411 84.811 20.29 84.891 20.165L87.832 17.259C89.424 15.654 90.295 13.521 90.283 11.259C90.273 8.99501 89.379 6.87201 87.769 5.28001L85.181 2.71601C83.583 1.13601 81.466 0.267008 79.22 0.267008C76.937 0.267008 74.798 1.16001 73.216 2.76301L63.023 12.834C60.806 11.641 58.482 10.664 56.066 9.94301L56.064 2.18101C56.062 1.02301 55.123 0.0830078 53.962 0.0830078H36.896C35.738 0.0830078 34.798 1.02201 34.796 2.18101L34.794 9.94501C32.38 10.666 30.05 11.629 27.835 12.822L22.355 7.33801C21.96 6.94301 21.425 6.72301 20.869 6.72301C20.313 6.72301 19.777 6.94401 19.385 7.33801L7.314 19.407C6.494 20.227 6.494 21.555 7.312 22.376L12.796 27.86C11.605 30.073 10.642 32.407 9.919 34.823H2.156C0.996 34.823 0.0559998 35.764 0.0559998 36.923V53.989C0.0559998 55.149 0.995 56.089 2.156 56.089H9.918C10.637 58.501 11.602 60.833 12.797 63.052L7.311 68.536C6.918 68.931 6.696 69.466 6.696 70.022C6.696 70.578 6.919 71.112 7.311 71.506L19.379 83.574C20.199 84.394 21.529 84.394 22.35 83.574L27.834 78.09C30.057 79.285 32.387 80.246 34.797 80.965V88.731C34.797 89.891 35.738 90.831 36.897 90.831H53.967C55.127 90.831 56.067 89.892 56.067 88.731V80.963C58.487 80.244 60.819 79.281 63.028 78.09L68.514 83.574C69.334 84.394 70.664 84.394 71.485 83.574L83.551 71.506C84.371 70.686 84.371 69.356 83.551 68.535L78.069 63.051C79.26 60.838 80.221 58.506 80.942 56.088H88.706C89.866 56.088 90.808 55.149 90.808 53.988V36.926C90.807 35.768 89.867 34.829 88.707 34.827ZM69.42 37.672C70.233 40.18 70.647 42.797 70.647 45.457C70.647 59.359 59.336 70.669 45.432 70.669C31.53 70.669 20.219 59.358 20.219 45.457C20.219 31.555 31.53 20.244 45.432 20.244C48.405 20.244 51.28 20.746 54.012 21.738L34.234 41.282C34.23 41.288 34.226 41.294 34.22 41.298C34.197 41.323 34.177 41.353 34.154 41.378C34.066 41.478 33.988 41.581 33.92 41.692C33.893 41.737 33.869 41.782 33.846 41.829C33.789 41.942 33.742 42.061 33.705 42.183C33.697 42.212 33.682 42.236 33.674 42.265L29.832 57.6C29.652 58.315 29.861 59.071 30.381 59.592C30.779 59.992 31.319 60.209 31.869 60.209C32.037 60.209 32.205 60.189 32.371 60.148L47.859 56.339C47.888 56.331 47.91 56.316 47.937 56.308C48.062 56.273 48.183 56.224 48.302 56.165C48.343 56.144 48.384 56.124 48.425 56.101C48.554 56.025 48.679 55.933 48.794 55.826C48.804 55.816 48.815 55.81 48.825 55.801C48.827 55.799 48.831 55.797 48.833 55.795L68.812 36.053C69.027 36.588 69.242 37.125 69.42 37.672ZM43.217 53.156L34.754 55.236L36.852 46.859L39.952 49.925L43.217 53.156ZM47.359 51.348L43.877 47.903L38.697 42.777L59.058 22.658C59.079 22.64 59.097 22.617 59.119 22.597L64.894 16.89C64.91 16.874 64.927 16.861 64.941 16.845L71.429 10.435L80.089 19.005L47.359 51.348ZM82.227 5.70001L84.815 8.26401C85.628 9.06901 86.079 10.139 86.085 11.28C86.091 12.419 85.651 13.493 84.864 14.288L83.079 16.054L74.417 7.48401L76.188 5.73401C77.785 4.11001 80.609 4.10001 82.227 5.70001ZM86.605 51.889H79.34C78.375 51.889 77.537 52.543 77.303 53.479C76.522 56.602 75.291 59.581 73.651 62.329C73.157 63.155 73.288 64.212 73.967 64.892L79.096 70.023L69.998 79.121L64.865 73.992C64.183 73.31 63.129 73.181 62.302 73.674C59.56 75.315 56.583 76.545 53.456 77.328C52.522 77.56 51.866 78.4 51.866 79.365V86.633H38.998V79.365C38.998 78.4 38.342 77.56 37.406 77.326C34.297 76.553 31.32 75.324 28.554 73.674C27.728 73.182 26.673 73.313 25.993 73.992L20.862 79.121L11.764 70.023L16.895 64.892C17.577 64.212 17.708 63.156 17.213 62.329C15.565 59.569 14.334 56.589 13.557 53.481C13.323 52.545 12.483 51.889 11.52 51.889H4.258V39.024H11.522C12.483 39.024 13.323 38.368 13.559 37.434C14.342 34.309 15.573 31.332 17.215 28.584C17.709 27.756 17.578 26.699 16.899 26.021L11.768 20.89L20.87 11.79L25.997 16.921C26.679 17.603 27.735 17.732 28.56 17.239C31.314 15.594 34.29 14.364 37.408 13.581C38.342 13.347 38.996 12.507 38.996 11.546L39 4.28201H51.867L51.869 11.546C51.869 12.507 52.525 13.347 53.459 13.581C55.684 14.138 57.832 14.935 59.885 15.936L57.266 18.524C53.539 16.879 49.569 16.044 45.434 16.044C29.215 16.044 16.022 29.239 16.022 45.456C16.022 61.672 29.215 74.87 45.434 74.87C61.653 74.87 74.848 61.673 74.848 45.456C74.848 42.356 74.366 39.3 73.418 36.378C73.033 35.187 72.563 34.017 72.025 32.88L74.609 30.325C75.777 32.581 76.689 34.96 77.308 37.432C77.542 38.366 78.382 39.022 79.345 39.022H86.607V51.889H86.605Z" fill="black"/>
</svg>
